<svg width="24" height="30" viewBox="0 0 24 30" fill="none" xmlns="http://www.w3.org/2000/svg">
<rect y="8" width="9" height="14" fill="#FF8900"/>
<path d="M-6.55671e-07 15L15 2.00962L15 27.9904L-6.55671e-07 15Z" fill="#FF8900"/>
<path fill-rule="evenodd" clip-rule="evenodd" d="M17 22C20.866 22 24 18.866 24 15C24 11.134 20.866 8 17 8V10C19.7614 10 22 12.2386 22 15C22 17.7614 19.7614 20 17 20V22Z" fill="#FF8900"/>
<path fill-rule="evenodd" clip-rule="evenodd" d="M17 19C19.2091 19 21 17.2091 21 15C21 12.7909 19.2091 11 17 11V12.7143C17 12.7143 17 12.7143 17 12.7143C18.2624 12.7143 19.2857 13.7376 19.2857 15C19.2857 16.2624 18.2624 17.2857 17 17.2857L17 19Z" fill="#FF8900"/>
</svg>
